<?xml version="1.0" encoding="UTF-8" standalone="no" ?>
<!DOCTYPE svg PUBLIC "-//W3C//DTD SVG 1.1//EN" "http://www.w3.org/Graphics/SVG/1.1/DTD/svg11.dtd">
<svg xmlns="http://www.w3.org/2000/svg" xmlns:xlink="http://www.w3.org/1999/xlink" version="1.1" width="300" height="300" viewBox="149.74 155.19 300 300" xml:space="preserve">
<desc>Created with Fabric.js 5.2.4</desc>
<defs>
</defs>
<rect x="0" y="0" width="100%" height="100%" fill="transparent"></rect>
<g transform="matrix(1 0 0 1 150 150)" id="cdff9ea4-3515-4537-87c3-687b5097ef1d"  >
<rect style="stroke: none; stroke-width: 1; stroke-dasharray: none; stroke-linecap: butt; stroke-dashoffset: 0; stroke-linejoin: miter; stroke-miterlimit: 4; fill: rgb(0,0,0); fill-rule: nonzero; opacity: 1; visibility: hidden;" vector-effect="non-scaling-stroke"  x="-150" y="-150" rx="0" ry="0" width="300" height="300" />
</g>
<g transform="matrix(Infinity NaN NaN Infinity 0 0)" id="320b68d5-dcbd-4414-b4f8-10ede2b08534"  >
</g>
<g transform="matrix(1.98 0 0 1.98 191.23 298.02)"  >
<path style="stroke: none; stroke-width: 1; stroke-dasharray: none; stroke-linecap: butt; stroke-dashoffset: 0; stroke-linejoin: miter; stroke-miterlimit: 4; fill: rgb(255,255,255); fill-rule: nonzero; opacity: 1;" vector-effect="non-scaling-stroke"  transform=" translate(-136.62, -227.38)" d="M 134.197 213.771 Q 138.487 213.771 141.743 215.448 Q 145 217.125 146.774 220.225 Q 148.549 223.326 148.549 227.421 Q 148.549 231.516 146.774 234.577 Q 145 237.639 141.743 239.316 Q 138.487 240.993 134.197 240.993 L 124.681 240.993 L 124.681 213.771 L 134.197 213.771 Z M 134.002 236.352 Q 138.292 236.352 140.632 234.012 Q 142.972 231.672 142.972 227.421 Q 142.972 223.17 140.632 220.771 Q 138.292 218.373 134.002 218.373 L 130.141 218.373 L 130.141 236.352 L 134.002 236.352 Z" stroke-linecap="round" />
</g>
<g transform="matrix(1.98 0 0 1.98 223.17 306.4)"  >
<path style="stroke: none; stroke-width: 1; stroke-dasharray: none; stroke-linecap: butt; stroke-dashoffset: 0; stroke-linejoin: miter; stroke-miterlimit: 4; fill: rgb(255,255,255); fill-rule: nonzero; opacity: 1;" vector-effect="non-scaling-stroke"  transform=" translate(-184.07, -240.45)" d="M 186.029 230.679 L 186.029 250.223 L 182.109 250.223 L 182.109 230.679 Z" stroke-linecap="round" />
</g>
<g transform="matrix(1.98 0 0 1.98 247.13 306.37)"  >
<path style="stroke: none; stroke-width: 1; stroke-dasharray: none; stroke-linecap: butt; stroke-dashoffset: 0; stroke-linejoin: miter; stroke-miterlimit: 4; fill: rgb(255,255,255); fill-rule: nonzero; opacity: 1;" vector-effect="non-scaling-stroke"  transform=" translate(-196.19, -240.44)" d="M 200.063 246.499 L 192.279 246.499 L 190.991 250.223 L 186.875 250.223 L 193.903 230.651 L 198.467 230.651 L 205.495 250.223 L 201.351 250.223 Z M 198.999 243.363 L 196.171 235.187 L 193.343 243.363 Z" stroke-linecap="round" />
</g>
<g transform="matrix(1.98 0 0 1.98 301.53 300.4)"  >
<path style="stroke: none; stroke-width: 1; stroke-dasharray: none; stroke-linecap: butt; stroke-dashoffset: 0; stroke-linejoin: miter; stroke-miterlimit: 4; fill: rgb(92,225,230); fill-rule: nonzero; opacity: 1;" vector-effect="non-scaling-stroke"  transform=" translate(-322.41, -231.39)" d="M 319.992 217.784 Q 324.282 217.784 327.539 219.461 Q 330.795 221.138 332.57 224.239 Q 334.344 227.339 334.344 231.434 Q 334.344 235.529 332.57 238.591 Q 330.795 241.652 327.539 243.329 Q 324.282 245.006 319.992 245.006 L 310.476 245.006 L 310.476 217.784 L 319.992 217.784 Z M 319.797 240.365 Q 324.087 240.365 326.427 238.025 Q 328.767 235.685 328.767 231.434 Q 328.767 227.183 326.427 224.785 Q 324.087 222.386 319.797 222.386 L 315.936 222.386 L 315.936 240.365 L 319.797 240.365 Z" stroke-linecap="round" />
</g>
<g transform="matrix(1.98 0 0 1.98 344.84 309.58)"  >
<path style="stroke: none; stroke-width: 1; stroke-dasharray: none; stroke-linecap: butt; stroke-dashoffset: 0; stroke-linejoin: miter; stroke-miterlimit: 4; fill: rgb(92,225,230); fill-rule: nonzero; opacity: 1;" vector-effect="non-scaling-stroke"  transform=" translate(-348.73, -184.27)" d="M 351.498 194.043 L 347.186 186.427 L 345.338 186.427 L 345.338 194.043 L 341.418 194.043 L 341.418 174.499 L 348.754 174.499 Q 351.022 174.499 352.618 175.297 Q 354.214 176.095 355.012 177.453 Q 355.81 178.811 355.81 180.491 Q 355.81 182.423 354.69 183.977 Q 353.57 185.531 351.358 186.119 L 356.034 194.043 Z M 345.338 183.487 L 348.614 183.487 Q 350.21 183.487 350.994 182.717 Q 351.778 181.947 351.778 180.575 Q 351.778 179.231 350.994 178.489 Q 350.21 177.747 348.614 177.747 L 345.338 177.747 Z" stroke-linecap="round" />
</g>
<g transform="matrix(1.98 0 0 1.98 366.19 309.58)"  >
<path style="stroke: none; stroke-width: 1; stroke-dasharray: none; stroke-linecap: butt; stroke-dashoffset: 0; stroke-linejoin: miter; stroke-miterlimit: 4; fill: rgb(92,225,230); fill-rule: nonzero; opacity: 1;" vector-effect="non-scaling-stroke"  transform=" translate(-359.52, -184.27)" d="M 361.482 174.499 L 361.482 194.043 L 357.562 194.043 L 357.562 174.499 Z" stroke-linecap="round" />
</g>
<g transform="matrix(1.98 0 0 1.98 389.96 309.58)"  >
<path style="stroke: none; stroke-width: 1; stroke-dasharray: none; stroke-linecap: butt; stroke-dashoffset: 0; stroke-linejoin: miter; stroke-miterlimit: 4; fill: rgb(92,225,230); fill-rule: nonzero; opacity: 1;" vector-effect="non-scaling-stroke"  transform=" translate(-371.54, -184.27)" d="M 381.088 174.499 L 373.92 194.043 L 369.16 194.043 L 361.992 174.499 L 366.192 174.499 L 371.568 190.039 L 376.916 174.499 Z" stroke-linecap="round" />
</g>
<g transform="matrix(1.98 0 0 1.98 421.16 309.55)"  >
<path style="stroke: none; stroke-width: 1; stroke-dasharray: none; stroke-linecap: butt; stroke-dashoffset: 0; stroke-linejoin: miter; stroke-miterlimit: 4; fill: rgb(92,225,230); fill-rule: nonzero; opacity: 1;" vector-effect="non-scaling-stroke"  transform=" translate(-387.32, -184.26)" d="M 385.566 177.663 L 385.566 182.563 L 392.146 182.563 L 392.146 185.671 L 385.566 185.671 L 385.566 190.851 L 392.986 190.851 L 392.986 194.043 L 381.646 194.043 L 381.646 174.471 L 392.986 174.471 L 392.986 177.663 Z" stroke-linecap="round" />
</g>
</svg>