<?xml version="1.0" standalone="no"?>
<!DOCTYPE svg PUBLIC "-//W3C//DTD SVG 20010904//EN"
 "http://www.w3.org/TR/2001/REC-SVG-20010904/DTD/svg10.dtd">
<svg version="1.0" xmlns="http://www.w3.org/2000/svg"
 width="2592.000000pt" height="2592.000000pt" viewBox="0 0 2592.000000 2592.000000"
 preserveAspectRatio="xMidYMid meet">
<metadata>
Created by potrace 1.14, written by Peter Selinger 2001-2017
</metadata>
<g transform="translate(0.000000,2592.000000) scale(0.100000,-0.100000)"
fill="#000000" stroke="none">
<path d="M19959 17476 c-1 -1 -3 -34 -4 -73 -3 -46 0 -75 7 -79 6 -4 279 -8
607 -10 1403 -6 4109 -19 4907 -23 119 -1 121 -1 120 -23 -1 -13 2 -29 7 -35
6 -8 6 -13 0 -13 -10 0 -10 -60 1 -78 4 -7 4 -12 -1 -12 -4 0 -8 -22 -8 -50 0
-27 4 -50 9 -50 5 0 4 -6 -1 -12 -10 -16 -10 -98 0 -115 5 -7 5 -13 0 -13 -4
0 -8 -22 -8 -50 0 -27 4 -50 8 -50 5 0 5 -6 0 -12 -10 -18 -10 -100 0 -115 5
-7 6 -13 1 -13 -5 0 -9 -22 -9 -50 0 -27 4 -50 9 -50 5 0 4 -6 -1 -12 -10 -16
-10 -98 0 -115 5 -7 5 -13 0 -13 -4 0 -8 -22 -8 -50 0 -27 4 -50 9 -50 5 0 4
-6 -1 -12 -10 -16 -10 -98 0 -115 5 -7 5 -13 0 -13 -4 0 -8 -22 -8 -50 0 -27
4 -50 9 -50 5 0 4 -6 -1 -12 -10 -16 -10 -98 0 -115 5 -7 5 -13 0 -13 -4 0 -8
-22 -8 -50 0 -27 4 -50 8 -50 5 0 5 -6 1 -12 -11 -17 -11 -118 -1 -118 5 0 5
-5 1 -12 -10 -17 -11 -148 0 -148 5 0 4 -6 -1 -12 -5 -7 -8 -31 -6 -53 4 -50
4 -49 0 -117 -1 -32 2 -58 6 -58 6 0 6 -5 0 -12 -5 -7 -8 -31 -6 -53 4 -50 4
-49 0 -117 -1 -32 2 -58 6 -58 6 0 6 -5 0 -12 -5 -7 -8 -31 -6 -53 4 -50 4
-49 0 -117 -1 -32 2 -58 6 -58 6 0 6 -5 0 -12 -5 -7 -8 -31 -6 -53 4 -50 4
-49 0 -117 -1 -32 2 -58 6 -58 6 0 6 -5 0 -12 -5 -7 -8 -31 -6 -53 4 -50 4
-49 0 -117 -1 -32 2 -58 6 -58 6 0 6 -5 0 -12 -5 -7 -8 -31 -6 -53 4 -50 4
-49 0 -117 -1 -32 2 -58 6 -58 6 0 6 -5 0 -12 -5 -7 -8 -31 -6 -53 4 -50 4
-49 0 -117 -1 -32 2 -58 6 -58 6 0 6 -5 0 -12 -5 -7 -8 -31 -6 -53 4 -50 4
-49 0 -117 -1 -32 2 -58 6 -58 6 0 6 -5 0 -12 -5 -7 -8 -31 -6 -53 4 -50 4
-49 0 -117 -1 -32 2 -58 6 -58 6 0 6 -5 0 -12 -5 -7 -8 -31 -6 -53 4 -50 4
-49 0 -117 -1 -32 2 -58 6 -58 6 0 6 -5 0 -12 -5 -7 -8 -31 -6 -53 4 -50 4
-49 0 -117 -1 -32 2 -58 6 -58 6 0 6 -5 0 -12 -5 -7 -8 -31 -6 -53 4 -50 4
-49 0 -117 -1 -32 2 -58 6 -58 6 0 6 -5 0 -12 -5 -7 -8 -31 -6 -53 4 -50 4
-49 0 -117 -1 -32 2 -58 6 -58 6 0 6 -5 0 -12 -5 -7 -8 -31 -6 -53 4 -50 4
-49 0 -117 -1 -32 2 -58 6 -58 6 0 6 -5 0 -12 -5 -7 -8 -31 -6 -53 4 -50 4
-49 0 -117 -1 -32 2 -58 6 -58 6 0 6 -5 0 -12 -5 -7 -8 -31 -6 -53 4 -50 4
-49 0 -117 -1 -32 2 -58 6 -58 6 0 6 -5 0 -12 -5 -7 -8 -31 -6 -53 4 -50 4
-49 0 -117 -1 -32 2 -58 6 -58 6 0 6 -5 0 -12 -5 -7 -8 -31 -6 -53 4 -50 4
-49 0 -117 -1 -32 2 -58 6 -58 6 0 6 -5 0 -12 -5 -7 -8 -31 -6 -53 4 -50 4
-49 0 -117 -1 -32 2 -58 6 -58 6 0 6 -5 0 -12 -5 -7 -8 -31 -6 -53 4 -50 4
-49 0 -117 -1 -32 2 -58 6 -58 6 0 6 -5 1 -12 -11 -15 -11 -78 0 -96 4 -6 4
-12 -1 -12 -10 0 -10 -101 1 -118 4 -6 4 -12 -1 -12 -4 0 -8 -22 -8 -50 0 -27
4 -50 9 -50 5 0 4 -6 -1 -12 -10 -16 -10 -98 0 -115 5 -7 5 -13 0 -13 -4 0 -8
-22 -8 -50 0 -27 4 -50 9 -50 5 0 4 -6 -1 -12 -10 -16 -10 -98 0 -115 5 -7 5
-13 0 -13 -4 0 -8 -22 -8 -50 0 -27 4 -50 9 -50 5 0 4 -6 -1 -12 -10 -16 -10
-98 0 -115 5 -7 5 -13 0 -13 -4 0 -8 -22 -8 -50 0 -27 4 -50 9 -50 5 0 4 -6
-1 -12 -10 -16 -10 -98 0 -115 5 -7 5 -13 0 -13 -4 0 -8 -22 -8 -50 0 -27 4
-50 9 -50 5 0 4 -6 -1 -12 -10 -16 -10 -98 0 -115 5 -7 5 -13 0 -13 -4 0 -8
-22 -8 -50 0 -27 4 -50 9 -50 5 0 4 -6 -1 -12 -10 -16 -10 -98 0 -115 5 -7 5
-13 0 -13 -4 0 -8 -22 -8 -50 0 -27 4 -50 9 -50 5 0 4 -6 -1 -12 -10 -16 -10
-98 0 -115 5 -7 4 -13 -1 -13 -8 0 -8 -82 1 -97 3 -4 1 -17 -3 -29 l-8 -21
-729 4 c-400 2 -1106 5 -1569 6 -462 2 -846 7 -852 11 -7 4 -12 3 -12 -2 0
-10 -42 -8 -59 3 -6 3 -11 2 -11 -3 0 -7 -33 -8 -50 -2 -3 1 -9 1 -15 0 -28
-6 -145 -4 -145 2 0 4 -10 4 -22 -1 -13 -5 -32 -5 -43 -1 -11 4 -29 4 -40 1
-11 -4 -31 -6 -45 -4 -62 7 -110 7 -110 0 0 -5 -4 -5 -10 -2 -5 3 -477 8
-1048 10 l-1038 4 -2 -79 -3 -80 153 0 c84 -1 529 -3 988 -5 2302 -11 3424
-17 4014 -19 557 -3 650 -5 657 -18 6 -11 25 -14 76 -13 37 1 71 3 74 4 8 1
17 71 9 71 -6 0 -3 147 4 166 3 8 2 14 -2 14 -9 0 -8 83 2 98 4 7 4 12 -1 12
-4 0 -7 26 -5 57 3 68 3 69 -1 108 -1 17 1 40 5 51 4 12 4 25 1 28 -6 6 -8 69
-3 91 1 6 2 12 1 15 -6 16 -5 180 1 180 4 0 4 11 -1 23 -5 13 -5 30 -1 37 5 8
5 21 1 29 -3 9 -5 30 -4 46 4 33 4 39 2 107 -1 25 2 51 6 57 3 6 3 11 -2 11
-4 0 -7 26 -5 57 3 76 3 72 0 118 -1 22 1 46 6 53 4 6 4 17 0 23 -10 16 -11
60 -2 85 4 12 4 25 1 28 -6 6 -8 69 -3 91 1 6 2 12 1 15 -6 16 -5 180 1 180 4
0 4 11 -1 23 -5 13 -5 30 -1 37 5 8 5 21 1 29 -3 9 -5 30 -4 46 4 33 4 39 2
107 -1 25 2 51 6 57 3 6 3 11 -2 11 -4 0 -7 26 -5 57 3 76 3 72 0 118 -1 22 1
46 6 53 4 6 4 17 0 23 -10 16 -11 60 -2 85 4 12 4 25 1 28 -6 6 -8 69 -3 91 1
6 2 12 1 15 -6 16 -5 180 1 180 4 0 4 11 -1 23 -5 13 -5 30 -1 37 5 8 5 21 1
29 -3 9 -5 30 -4 46 4 33 4 39 2 107 -1 25 2 51 6 57 3 6 3 11 -2 11 -4 0 -7
26 -5 57 3 76 3 72 0 118 -1 22 1 46 6 53 4 6 4 17 0 23 -10 16 -11 60 -2 85
4 12 4 25 1 28 -6 6 -8 69 -3 91 1 6 2 12 1 15 -6 16 -5 180 1 180 4 0 4 11
-1 23 -5 13 -5 30 -1 37 5 8 5 21 1 29 -3 9 -5 30 -4 46 4 33 4 39 2 107 -1
25 2 51 6 57 3 6 3 11 -2 11 -4 0 -7 26 -5 57 3 76 3 72 0 118 -1 22 1 46 6
53 4 6 4 17 0 23 -10 16 -11 60 -2 85 4 12 4 25 1 28 -6 6 -8 69 -3 91 1 6 2
12 1 15 -6 16 -5 180 1 180 4 0 4 11 -1 23 -5 13 -5 30 -1 37 5 8 5 21 1 29
-3 9 -5 30 -4 46 4 33 4 39 2 107 -1 25 2 51 6 57 3 6 3 11 -2 11 -4 0 -7 26
-5 57 3 76 3 72 0 118 -1 22 1 46 6 53 4 6 4 17 0 23 -10 16 -11 60 -2 85 4
12 4 25 1 28 -6 6 -8 69 -3 91 1 6 2 12 1 15 -6 16 -5 180 1 180 4 0 4 11 -1
23 -5 13 -5 30 -1 37 5 8 5 21 1 29 -3 9 -5 30 -4 46 4 33 4 39 2 107 -1 25 2
51 6 57 3 6 3 11 -2 11 -4 0 -7 26 -5 57 3 76 3 72 0 118 -1 22 1 46 6 53 4 6
4 17 0 23 -10 16 -11 60 -2 85 4 12 4 25 1 28 -6 6 -8 69 -3 91 1 6 2 12 1 15
-6 16 -5 180 1 180 4 0 4 11 -1 23 -5 13 -5 30 -1 37 5 8 5 21 1 29 -3 9 -5
30 -4 46 4 33 4 39 2 107 -1 25 2 51 6 57 3 6 3 11 -2 11 -4 0 -7 26 -5 57 3
76 3 72 0 118 -1 22 1 46 6 53 4 6 4 12 -1 12 -4 0 -8 20 -8 45 0 25 3 45 7
45 4 0 4 11 -1 23 -5 13 -5 30 -1 37 5 8 5 21 1 29 -3 9 -5 30 -4 46 4 33 4
39 2 107 -1 25 2 51 6 57 3 6 3 11 -2 11 -4 0 -7 26 -5 57 3 76 3 72 0 118 -1
22 1 46 6 53 4 6 4 17 0 23 -10 16 -11 60 -2 85 4 12 4 25 1 28 -6 6 -8 69 -3
91 1 6 2 12 1 15 -6 16 -5 180 1 180 4 0 4 11 -1 23 -5 13 -5 30 -1 37 5 8 5
21 1 29 -3 9 -5 30 -4 46 4 33 4 39 2 107 -1 25 2 51 6 57 3 6 3 11 -2 11 -4
0 -7 26 -5 57 3 64 3 62 2 118 0 22 1 62 2 88 2 27 0 51 -4 53 -4 3 -3 16 2
29 6 15 6 27 0 30 -5 3 -7 12 -3 20 4 13 -11 15 -93 16 -55 0 -484 2 -954 5
-470 3 -875 5 -900 4 -25 0 -52 0 -60 0 -8 0 -24 0 -35 0 -11 -1 -24 -1 -30
-1 -5 0 -552 3 -1215 6 -1757 9 -2510 12 -2511 11z"/>
<path d="M289 17405 c0 -11 -1 -47 -2 -80 l-1 -60 437 0 c240 0 437 -4 437 -8
0 -5 5 -5 11 -1 14 8 163 9 177 0 6 -3 13 -2 17 4 4 6 12 7 22 1 9 -5 29 -5
44 -1 15 5 30 6 32 4 4 -4 941 -9 3537 -18 366 -1 670 -5 676 -9 6 -3 14 -3
18 1 11 10 296 9 296 -2 0 -5 6 -4 13 1 6 5 32 8 57 7 l45 -1 0 73 c0 40 -4
76 -8 80 -3 4 -366 8 -804 10 -439 1 -1497 5 -2351 8 -854 3 -1557 8 -1562 11
-5 3 -11 1 -15 -4 -3 -6 -12 -8 -20 -5 -8 3 -249 7 -535 8 -514 1 -520 1 -521
-19z"/>
<path d="M49 17356 c-1 -6 0 -416 1 -911 1 -495 2 -1572 3 -2392 1 -821 6
-1493 10 -1493 5 0 5 -5 1 -12 -6 -10 -9 -160 -3 -178 1 -3 0 -9 -1 -15 -3
-14 -3 -128 0 -140 1 -5 2 -14 1 -20 -1 -5 -1 -75 -1 -155 1 -80 1 -174 0
-210 -1 -36 -1 -69 -1 -75 0 -5 2 -676 5 -1490 2 -814 5 -1492 5 -1506 1 -26
2 -26 81 -28 l80 -2 1 78 c1 43 0 83 -1 88 -1 6 -3 625 -5 1376 -1 751 -5
1371 -9 1378 -4 6 -4 11 1 11 7 0 8 121 3 290 -1 30 -1 60 0 65 2 12 2 50 0
260 -1 88 -1 165 0 170 1 6 2 12 0 15 -6 16 -4 113 3 117 4 2 5 9 1 14 -3 5
-8 940 -10 2077 -3 1137 -6 2209 -7 2382 l-2 315 -77 1 c-48 0 -78 -4 -79 -10z"/>
<path d="M1949 15268 c-4 -11 -3 -4342 1 -4348 5 -8 1740 -5 1805 4 22 3 59 8
83 10 24 2 62 7 85 11 23 4 54 9 70 11 26 4 151 30 190 40 9 2 25 6 35 8 148
35 411 144 551 228 34 21 66 38 70 38 5 0 16 9 26 20 10 11 22 20 27 20 19 0
188 140 279 230 105 103 189 206 259 315 24 39 49 73 55 77 5 4 6 8 1 8 -5 0
-4 6 2 13 10 12 76 138 77 147 0 3 6 15 13 28 48 86 121 333 157 532 4 24 17
131 22 185 12 127 4 514 -13 595 -2 14 -7 43 -9 65 -6 47 -8 58 -30 150 -9 39
-18 78 -20 88 -2 9 -6 21 -9 25 -3 5 -7 19 -10 33 -3 13 -7 33 -10 44 -5 21
-67 179 -92 232 -8 17 -14 36 -14 42 0 6 -3 11 -8 11 -4 0 -15 17 -25 38 -32
70 -127 225 -151 247 -6 6 -19 23 -29 38 -10 16 -28 40 -40 55 -30 36 -216
222 -247 247 -59 47 -116 91 -135 103 -50 31 -81 51 -90 59 -44 34 -284 152
-380 186 -92 33 -183 63 -220 73 -46 11 -48 12 -75 18 -14 3 -41 9 -60 14 -19
5 -38 9 -42 10 -5 1 -9 2 -10 3 -2 0 -14 2 -28 3 -14 2 -59 8 -100 15 -41 6
-102 14 -135 18 -58 6 -1824 17 -1826 11z m1641 -742 c52 -3 106 -8 120 -10
14 -3 43 -7 65 -11 22 -3 67 -12 100 -21 33 -8 69 -16 80 -18 32 -6 156 -53
205 -77 25 -13 48 -22 53 -21 4 1 7 -3 7 -8 0 -6 5 -10 10 -10 6 0 46 -23 88
-52 92 -62 241 -208 304 -298 38 -55 111 -184 114 -200 0 -3 8 -23 17 -44 34
-78 73 -204 81 -266 2 -14 9 -52 14 -85 6 -33 14 -89 18 -125 7 -70 7 -346 -1
-395 -2 -16 -7 -57 -10 -90 -4 -32 -8 -62 -11 -66 -2 -4 -7 -24 -10 -45 -9
-54 -8 -52 -28 -119 -10 -33 -19 -64 -21 -70 -23 -94 -129 -282 -222 -395 -27
-34 -147 -150 -154 -150 -3 0 -17 -9 -30 -21 -117 -103 -376 -212 -579 -243
-19 -3 -45 -8 -57 -10 -64 -13 -245 -20 -563 -20 l-355 -1 -3 745 c-2 410 -3
752 -3 760 1 85 1 148 0 160 0 12 -1 738 0 800 0 8 0 44 0 80 1 36 1 74 1 85
-1 11 0 70 0 132 l1 112 37 3 c60 5 629 0 732 -6z"/>
<path d="M10879 15076 c-1 -1 -3 -977 -4 -2171 -1 -1936 0 -2171 14 -2181 10
-8 24 -9 38 -3 13 5 25 4 28 -1 3 -6 15 -6 30 0 14 5 25 6 25 2 0 -4 14 -7 30
-7 17 0 30 3 30 7 0 4 11 3 25 -2 16 -6 25 -6 25 0 0 6 9 6 23 1 12 -5 32 -5
44 0 13 5 25 4 28 -1 3 -6 15 -6 30 0 15 6 27 6 30 0 3 -6 15 -6 30 0 14 5 25
6 25 2 0 -4 14 -7 30 -7 17 0 30 3 30 7 0 4 11 3 25 -2 16 -6 25 -6 25 0 0 6
9 6 23 1 12 -5 32 -5 44 0 13 5 25 4 28 -1 3 -6 15 -6 30 0 15 6 27 6 30 0 3
-6 15 -6 30 0 14 5 25 6 25 2 0 -4 14 -7 30 -7 17 0 30 3 30 7 0 4 11 3 25 -2
16 -6 25 -6 25 0 0 6 9 6 23 1 12 -5 32 -5 44 0 13 5 25 4 28 -1 3 -6 15 -6
30 0 15 6 27 6 30 0 3 -6 15 -6 30 0 14 5 25 6 25 2 0 -4 14 -7 30 -7 17 0 30
3 30 7 0 4 11 3 25 -2 16 -6 25 -6 25 0 0 6 9 6 23 1 12 -5 32 -5 44 0 13 5
25 4 28 -1 3 -6 15 -6 30 0 15 6 27 6 30 0 3 -6 15 -6 30 0 14 5 25 6 25 2 0
-4 14 -7 30 -7 17 0 30 3 30 7 0 4 11 3 25 -2 14 -5 25 -6 25 -2 0 4 11 7 25
7 14 0 25 -4 25 -8 0 -5 4 -6 10 -2 5 3 51 8 102 10 51 2 116 7 143 10 28 3
69 7 93 10 23 2 68 9 100 15 31 5 71 13 87 15 76 14 269 67 353 99 50 18 92
33 92 31 0 -6 295 146 311 160 8 8 20 15 26 15 5 0 18 9 28 20 10 11 22 20 27
20 9 0 66 38 83 56 5 5 26 22 45 36 19 14 58 47 85 72 28 25 53 46 58 46 4 0
7 6 7 14 0 8 9 18 20 21 11 3 20 10 20 15 0 5 19 29 43 54 50 54 49 53 110
134 27 35 53 75 59 88 6 13 15 24 20 24 4 0 8 4 8 8 0 10 84 161 99 178 5 7 8
14 5 16 -2 3 7 26 21 51 13 26 22 47 19 47 -2 0 2 12 10 28 26 51 108 317 105
339 -1 5 0 10 1 13 11 29 36 199 46 310 6 74 6 371 0 440 -7 83 -16 152 -21
180 -3 14 -8 42 -11 64 -6 39 -7 47 -23 121 -15 65 -40 158 -53 190 -7 17 -13
35 -14 41 -6 42 -112 268 -166 354 -15 25 -34 59 -42 75 -8 17 -24 39 -35 49
-12 11 -21 25 -21 33 0 7 -3 13 -8 13 -4 0 -14 11 -22 24 -57 91 -248 279
-395 387 -33 24 -61 47 -63 52 -2 4 -9 7 -15 7 -7 0 -36 16 -64 35 -29 19 -55
35 -58 35 -3 0 -22 10 -43 23 -36 23 -284 134 -289 130 -2 -1 -22 5 -45 13
-24 9 -47 17 -53 18 -5 2 -17 6 -25 9 -8 3 -35 11 -60 18 -44 11 -58 14 -110
25 -14 3 -29 7 -35 8 -59 15 -223 40 -340 52 -31 4 -1790 13 -1796 10z m1751
-751 c40 -6 151 -27 206 -39 60 -13 215 -71 283 -106 146 -75 306 -206 386
-315 17 -22 32 -42 35 -45 11 -10 86 -136 107 -180 34 -70 72 -160 68 -160 -2
0 3 -19 11 -42 18 -51 43 -158 50 -213 2 -22 7 -53 10 -70 4 -16 8 -70 10
-120 2 -49 5 -99 7 -110 2 -11 1 -32 -4 -47 -4 -16 -3 -30 2 -34 5 -3 7 -10 3
-15 -3 -5 -7 -49 -10 -97 -2 -48 -6 -96 -8 -107 -2 -11 -7 -40 -11 -65 -4 -25
-9 -54 -11 -65 -6 -33 -36 -149 -44 -170 -4 -11 -18 -47 -30 -80 -25 -66 -94
-201 -116 -226 -8 -8 -14 -19 -14 -22 0 -4 -8 -15 -17 -26 -10 -10 -28 -32
-40 -48 -21 -27 -125 -134 -155 -158 -150 -122 -388 -230 -583 -264 -33 -6
-71 -13 -85 -16 -70 -14 -209 -19 -554 -19 l-379 -1 1 1425 c0 784 1 1431 1
1437 1 10 93 12 419 9 229 -2 437 -7 462 -11z"/>
<path d="M8085 13982 l-71 -3 -33 -97 c-19 -53 -38 -108 -44 -122 -6 -14 -11
-29 -13 -35 -10 -33 -98 -276 -121 -335 -3 -8 -7 -19 -9 -25 -11 -45 -61 -171
-69 -177 -5 -4 -7 -8 -3 -8 6 0 -8 -43 -68 -205 -8 -22 -17 -48 -19 -59 -2
-10 -10 -25 -17 -34 -7 -8 -12 -17 -10 -19 1 -1 2 -4 1 -5 0 -2 -2 -10 -4 -18
-2 -8 -11 -35 -20 -60 -9 -25 -39 -108 -67 -185 -27 -77 -66 -183 -85 -235
-19 -52 -39 -111 -45 -130 -5 -19 -14 -40 -19 -46 -6 -7 -9 -16 -8 -20 2 -5
-3 -20 -9 -34 -14 -32 -70 -190 -74 -210 -2 -8 -5 -17 -8 -20 -6 -6 -29 -67
-35 -90 -3 -14 -23 -70 -127 -355 -22 -60 -41 -114 -43 -120 -1 -5 -5 -17 -8
-25 -6 -15 -66 -182 -92 -255 -8 -22 -20 -53 -26 -70 -7 -16 -14 -38 -16 -48
-1 -10 -10 -32 -19 -48 -8 -17 -13 -33 -10 -36 2 -3 150 -5 327 -5 300 1 323
2 333 19 6 10 11 20 11 23 2 11 47 146 55 165 14 29 83 229 95 275 20 72 39
111 52 106 8 -3 12 -2 9 2 -2 4 273 7 612 7 l615 0 9 -30 c5 -17 12 -37 15
-45 4 -8 7 -17 8 -20 0 -3 9 -30 20 -60 11 -30 20 -57 20 -60 1 -3 5 -12 8
-20 3 -8 20 -58 37 -110 18 -52 36 -104 40 -115 4 -11 13 -33 18 -50 6 -16 14
-39 18 -50 4 -11 6 -23 6 -27 -1 -5 4 -8 10 -8 58 -3 652 0 654 3 4 4 -53 164
-67 189 -5 10 -9 25 -9 33 0 8 -4 23 -10 33 -5 9 -32 82 -60 162 -52 146 -74
208 -105 290 -9 25 -18 52 -20 62 -2 9 -11 30 -19 47 -9 17 -16 34 -16 38 0 5
-7 26 -14 48 -8 22 -38 105 -66 185 -29 80 -56 154 -60 165 -5 11 -16 40 -24
65 -12 40 -26 78 -52 145 -4 11 -8 23 -9 28 -2 4 -4 9 -5 12 -1 3 -4 10 -5 15
-1 6 -4 12 -5 15 -1 3 -3 8 -5 13 -1 4 -6 18 -12 32 -5 14 -25 68 -43 120 -18
52 -39 109 -46 127 -8 17 -14 34 -14 38 0 4 -38 111 -84 238 -83 229 -135 373
-236 657 -126 354 -132 368 -151 373 -9 3 -23 1 -30 -4 -7 -4 -17 -5 -22 -2
-10 6 -475 10 -592 5z m390 -1005 c45 -133 102 -296 125 -362 23 -66 48 -140
56 -165 8 -25 17 -52 21 -60 3 -8 7 -19 9 -25 1 -5 16 -47 32 -92 17 -46 28
-83 25 -83 -3 0 -1 -6 4 -12 6 -7 18 -38 27 -68 10 -30 21 -64 25 -75 5 -11
14 -33 20 -49 7 -16 9 -31 6 -34 -9 -10 -886 -8 -892 1 -3 5 -1 19 5 30 6 12
34 92 63 177 29 85 56 160 61 166 5 7 8 16 7 20 -1 5 0 11 1 14 1 3 3 12 5 20
2 8 27 78 55 155 28 77 53 148 55 157 2 9 20 63 40 120 20 57 46 130 57 163
11 33 23 67 27 75 4 8 20 56 37 106 20 64 32 87 37 77 5 -8 46 -123 92 -256z"/>
<path d="M6129 13955 c0 -11 -1 -714 -2 -1563 l-2 -1542 315 0 315 0 0 1563 0
1562 -312 0 c-307 0 -313 0 -314 -20z"/>
<path d="M15171 13720 c-7 -4 -24 -5 -39 -2 -21 4 -25 2 -15 -8 8 -8 9 -20 3
-36 -6 -13 -6 -24 -1 -24 5 0 5 -16 1 -35 -5 -21 -4 -35 2 -35 5 0 6 -5 2 -11
-10 -16 -11 -69 -2 -97 5 -13 5 -21 0 -19 -4 3 -7 -8 -7 -24 0 -16 3 -29 7
-29 4 0 3 -11 -2 -25 -6 -15 -6 -26 1 -30 5 -4 6 -11 3 -17 -9 -15 -10 -119
-1 -125 4 -2 4 -9 1 -15 -9 -14 -8 -113 1 -127 3 -6 3 -11 -2 -11 -4 0 -8 -11
-8 -25 0 -14 3 -25 6 -25 4 0 3 -18 -1 -39 -4 -21 -3 -46 2 -55 5 -9 5 -16 1
-16 -4 0 -8 -11 -8 -25 0 -14 3 -25 7 -25 4 0 4 -10 -1 -23 -5 -14 -5 -30 0
-40 7 -11 6 -17 0 -17 -7 0 -7 -8 -1 -24 5 -13 6 -27 3 -30 -9 -9 -9 -86 0
-86 5 0 5 -5 1 -11 -10 -16 -11 -69 -2 -97 5 -13 5 -21 0 -19 -4 3 -7 -8 -7
-24 0 -16 3 -29 7 -29 4 0 3 -11 -2 -25 -6 -15 -6 -26 1 -30 5 -4 6 -11 3 -17
-9 -15 -10 -119 -1 -125 4 -2 4 -9 1 -15 -9 -14 -8 -113 1 -127 3 -6 3 -11 -2
-11 -4 0 -8 -11 -8 -25 0 -14 3 -25 6 -25 4 0 3 -18 -1 -39 -4 -21 -3 -46 2
-55 5 -9 5 -16 1 -16 -4 0 -8 -11 -8 -25 0 -14 3 -25 7 -25 4 0 4 -10 -1 -23
-5 -14 -5 -30 0 -40 7 -11 6 -17 0 -17 -7 0 -7 -8 -1 -24 5 -13 6 -27 3 -30
-9 -9 -9 -86 0 -86 5 0 5 -5 1 -11 -10 -16 -11 -69 -2 -97 5 -13 5 -21 0 -19
-4 3 -7 -8 -7 -24 0 -16 3 -29 7 -29 4 0 3 -11 -2 -25 -6 -15 -6 -26 1 -30 5
-4 6 -11 3 -17 -9 -15 -10 -119 -1 -125 4 -2 4 -9 1 -15 -9 -14 -8 -113 1
-127 3 -6 3 -11 -2 -11 -4 0 -8 -11 -8 -25 0 -14 3 -25 6 -25 4 0 3 -18 -1
-39 -4 -21 -3 -46 2 -55 5 -9 5 -16 1 -16 -4 0 -8 -11 -8 -25 0 -14 3 -25 7
-25 4 0 4 -10 -1 -23 -5 -14 -5 -30 0 -40 7 -11 6 -17 0 -17 -7 0 -7 -8 -1
-24 5 -13 6 -27 3 -30 -9 -9 -9 -86 0 -86 5 0 5 -5 2 -11 -14 -22 -10 -89 5
-93 8 -3 149 -5 312 -5 271 0 297 2 302 17 3 9 5 282 5 605 -1 324 1 590 3
592 6 6 43 7 169 6 l125 -1 17 -32 c18 -37 64 -118 126 -224 22 -39 41 -76 41
-83 0 -6 5 -11 10 -11 6 0 10 -4 10 -9 0 -5 23 -47 50 -94 28 -47 50 -88 50
-92 0 -4 8 -19 18 -33 11 -15 32 -52 49 -82 17 -30 40 -72 52 -92 50 -89 65
-115 89 -158 13 -25 29 -51 35 -57 5 -7 6 -13 1 -13 -5 0 -1 -5 9 -11 9 -6 15
-14 12 -20 -4 -5 -1 -9 4 -9 6 0 11 -4 11 -9 0 -5 23 -49 52 -99 l51 -90 359
-1 c214 0 358 4 358 9 0 5 -17 38 -38 72 -21 35 -41 70 -45 78 -4 8 -15 27
-25 42 -25 39 -166 280 -171 293 -2 5 -7 12 -10 15 -8 6 -23 32 -57 95 -15 28
-29 52 -33 55 -5 4 -22 33 -55 95 -6 11 -13 22 -16 25 -3 3 -11 16 -18 29 -8
13 -22 38 -31 55 -10 17 -32 54 -49 82 -18 28 -32 56 -32 62 0 6 -3 12 -8 14
-9 4 -112 176 -112 188 0 4 -7 13 -15 20 -15 13 -21 52 -7 48 15 -4 112 32
194 71 104 49 188 111 261 193 73 81 77 86 77 94 0 4 6 15 14 23 16 18 87 156
90 174 1 7 4 17 8 22 3 6 9 26 14 45 4 19 9 40 10 45 37 141 34 366 -5 468 -6
15 -8 27 -6 27 3 0 -1 15 -8 33 -8 17 -14 34 -14 37 0 3 -8 22 -17 44 -9 21
-16 41 -16 43 0 14 -115 174 -152 213 -196 201 -479 310 -815 314 -51 0 -93 4
-93 7 0 4 -16 3 -34 -1 -19 -4 -37 -5 -40 -3 -8 8 -75 9 -70 1 3 -4 -8 -5 -23
-3 -49 10 -141 10 -136 1 3 -4 -4 -5 -15 -2 -11 4 -44 6 -74 6 -79 -1 -80 -1
-120 2 -20 2 -34 -1 -31 -5 3 -5 -4 -6 -15 -3 -11 4 -44 6 -74 6 -79 -1 -80
-1 -120 2 -20 2 -34 0 -31 -5 2 -4 -8 -5 -23 -1 -16 4 -34 7 -41 6 -23 -3
-107 -3 -145 0 -20 2 -34 0 -32 -4 6 -10 6 -10 -32 1 -17 5 -37 6 -43 1z
m1281 -541 c151 -38 241 -111 289 -234 7 -16 13 -33 14 -37 2 -5 3 -9 4 -10
21 -27 19 -241 -3 -313 -22 -70 -68 -148 -111 -187 -36 -33 -142 -88 -177 -92
-14 -2 -30 -6 -36 -10 -6 -3 -52 -8 -102 -10 -50 -2 -94 -7 -97 -10 -3 -3 -10
-3 -16 1 -13 8 -149 8 -170 0 -9 -3 -19 -3 -21 2 -6 9 -63 8 -72 -2 -4 -3 -11
-4 -17 0 -6 3 -50 6 -99 5 l-88 -1 -1 57 c0 31 -1 238 -2 459 l-2 402 320 -1
c266 -1 331 -4 387 -19z"/>
<path d="M17777 13724 c-3 -3 -21 -6 -39 -6 l-34 0 0 -1564 0 -1563 313 0 313
1 0 1564 c0 860 -3 1563 -7 1563 -5 -1 -10 0 -13 1 -14 5 -68 4 -64 -2 2 -3
-13 -4 -34 -2 -77 9 -91 10 -87 4 2 -3 -19 -5 -46 -5 -27 0 -49 3 -49 7 0 3
-12 3 -27 -1 -14 -4 -48 -4 -74 -1 -26 4 -46 3 -44 0 6 -9 -89 -6 -96 3 -3 4
-8 5 -12 1z"/>
<path d="M18497 13724 c-2 -2 -22 -5 -44 -6 -40 -1 -41 -2 -31 -27 5 -14 19
-51 30 -81 11 -30 22 -62 25 -70 4 -8 7 -17 7 -20 1 -6 24 -65 36 -95 5 -11
32 -85 60 -165 29 -80 58 -158 65 -175 7 -16 20 -50 28 -75 27 -80 117 -324
127 -345 5 -11 17 -42 26 -70 9 -27 21 -61 27 -75 5 -14 11 -29 13 -35 3 -12
42 -123 54 -150 4 -11 17 -46 29 -77 12 -32 30 -84 42 -115 12 -32 25 -67 29
-78 5 -11 31 -85 60 -165 28 -80 55 -154 60 -165 5 -11 27 -72 50 -135 22 -63
43 -122 47 -130 3 -8 7 -17 8 -20 1 -3 4 -12 8 -20 3 -8 13 -37 23 -65 9 -27
21 -54 25 -59 4 -5 5 -15 2 -22 -3 -8 -1 -14 4 -14 5 0 10 -6 10 -12 0 -13 63
-186 88 -243 7 -16 24 -64 39 -105 14 -41 46 -129 70 -195 l44 -120 382 0 383
0 14 40 c7 22 17 49 22 60 11 24 101 266 104 280 1 6 8 24 14 40 6 17 21 57
33 90 12 33 26 69 31 80 4 11 19 52 33 90 13 39 35 100 49 137 14 37 22 69 19
72 -3 3 -1 6 5 6 5 0 15 19 22 43 16 54 69 197 81 219 6 10 10 26 10 36 0 10
3 22 8 26 4 4 7 11 8 14 0 4 8 24 17 46 9 21 17 42 17 47 0 8 39 115 60 164 5
11 39 103 75 205 72 200 142 393 155 425 13 32 23 59 25 70 3 9 29 78 50 130
4 11 9 25 11 30 2 11 61 172 71 195 3 8 7 18 7 22 1 3 4 10 9 14 4 4 7 13 7
20 0 7 5 25 11 41 6 15 9 28 8 28 -1 0 4 11 11 25 8 14 15 27 15 30 0 3 9 30
19 60 16 48 30 84 66 175 34 86 51 147 45 162 -5 12 -9 14 -12 6 -3 -8 -12 -9
-28 -3 -12 5 -25 7 -27 5 -9 -9 -88 -11 -98 -1 -7 7 -10 6 -10 -2 0 -8 -7 -9
-24 -2 -13 5 -26 7 -28 5 -8 -8 -89 -11 -94 -4 -2 5 -15 4 -28 -1 -13 -5 -26
-6 -29 -3 -9 9 -76 9 -70 0 3 -5 -4 -6 -15 -3 -26 9 -142 10 -149 2 -4 -3 -12
-1 -19 5 -13 11 -30 -11 -40 -49 -4 -16 -49 -152 -61 -182 -16 -43 -95 -267
-98 -280 -3 -15 -71 -212 -82 -240 -4 -8 -7 -18 -7 -22 -1 -3 -4 -10 -8 -14
-5 -4 -8 -15 -8 -24 0 -9 -11 -45 -25 -81 -14 -35 -27 -71 -29 -79 -3 -14 -6
-24 -23 -67 -3 -10 -7 -20 -8 -23 -6 -25 -18 -59 -25 -75 -5 -11 -22 -60 -39
-110 -31 -97 -113 -333 -211 -615 -33 -96 -63 -183 -65 -192 -2 -9 -9 -26 -15
-37 -6 -12 -8 -21 -4 -21 3 0 1 -6 -5 -13 -6 -8 -12 -22 -14 -33 -4 -18 -7
-27 -24 -71 -3 -10 -7 -20 -8 -23 0 -3 -16 -50 -35 -105 -19 -55 -33 -103 -32
-107 1 -5 -4 -8 -11 -8 -8 0 -14 6 -14 13 -1 6 -31 98 -68 202 -36 105 -80
231 -96 280 -17 50 -33 97 -36 105 -4 8 -7 17 -8 20 -1 3 -4 12 -8 20 -3 8
-20 56 -36 105 -46 140 -111 328 -121 350 -10 25 -51 144 -55 159 -2 11 -4 16
-21 61 -4 11 -8 25 -10 30 -1 6 -19 55 -39 110 -20 55 -37 105 -38 110 -7 25
-29 92 -37 110 -5 11 -18 49 -30 85 -12 36 -25 74 -30 85 -5 11 -14 38 -20 60
-6 22 -16 49 -21 60 -6 12 -11 27 -13 35 -2 8 -6 22 -9 30 -3 8 -13 35 -21 60
-19 59 -86 251 -93 270 -4 8 -7 17 -8 20 -19 64 -29 87 -39 88 -10 0 -103 1
-146 1 -8 0 -31 2 -52 3 -20 2 -34 -1 -31 -5 3 -5 -4 -6 -15 -3 -11 4 -44 6
-74 6 -79 -1 -80 -1 -120 2 -20 2 -34 0 -32 -4 4 -6 -39 -3 -88 7 -9 1 -19 1
-21 -1z"/>
<path d="M21562 13715 c-5 -7 -8 -2975 -3 -3102 l1 -21 905 -1 c840 0 905 2
906 17 4 90 0 484 -5 489 -4 4 -270 7 -591 6 -322 0 -585 3 -586 6 -1 3 -2
189 -3 414 l-1 407 30 0 c17 1 253 1 526 1 l496 0 1 67 c2 109 2 152 -1 240
-1 45 2 82 6 82 5 0 5 5 1 11 -4 7 -7 30 -8 53 l-1 41 -525 5 -525 5 0 388 c0
251 4 387 10 388 6 0 273 1 594 2 l584 2 0 248 c0 136 -3 251 -7 254 -11 12
-1797 9 -1804 -2z"/>
<path d="M323 8833 c2 -13 1 -23 -2 -23 -7 0 -4 -87 3 -105 4 -11 317 -15
1396 -18 323 -1 508 -6 512 -12 5 -6 8 -6 8 1 0 7 15 9 43 4 24 -3 55 -3 69 1
15 4 29 4 32 1 3 -3 239 -6 523 -8 1362 -9 1795 -13 1800 -18 3 -2 15 -1 27 4
12 4 29 4 38 -1 11 -6 19 -5 23 1 3 5 14 7 23 3 9 -5 262 -8 562 -8 l545 0 2
78 2 77 -37 1 c-135 2 -2331 20 -2933 23 -284 2 -522 7 -528 10 -6 4 -11 4
-11 -1 0 -8 -57 -8 -95 0 -11 2 -30 1 -41 -4 -13 -4 -26 -3 -33 4 -8 8 -11 8
-11 -2 0 -7 -5 -9 -11 -5 -6 3 -299 8 -652 10 -353 3 -781 6 -950 7 l-308 3 4
-23z"/>
</g>
</svg>
