<?xml version="1.0" encoding="utf-8"?>
<svg viewBox="151.444 180.867 161.95 57.81" xmlns="http://www.w3.org/2000/svg">
  <path d="M 134.197 213.771 Q 138.487 213.771 141.743 215.448 Q 145 217.125 146.774 220.225 Q 148.549 223.326 148.549 227.421 Q 148.549 231.516 146.774 234.577 Q 145 237.639 141.743 239.316 Q 138.487 240.993 134.197 240.993 L 124.681 240.993 L 124.681 213.771 L 134.197 213.771 Z M 134.002 236.352 Q 138.292 236.352 140.632 234.012 Q 142.972 231.672 142.972 227.421 Q 142.972 223.17 140.632 220.771 Q 138.292 218.373 134.002 218.373 L 130.141 218.373 L 130.141 236.352 L 134.002 236.352 Z" transform="matrix(1, 0, 0, 1, 38.924557, -18.459066)" style="fill: rgb(255, 255, 255);"/>
  <path d="M 186.029 230.679 L 186.029 250.223 L 182.109 250.223 L 182.109 230.679 Z" transform="matrix(1, 0, 0, 1, 7.624399, -27.287321)" style="fill: rgb(255, 255, 255);"/>
  <path d="M 200.063 246.499 L 192.279 246.499 L 190.991 250.223 L 186.875 250.223 L 193.903 230.651 L 198.467 230.651 L 205.495 250.223 L 201.351 250.223 Z M 198.999 243.363 L 196.171 235.187 L 193.343 243.363 Z" transform="matrix(1, 0, 0, 1, 7.624399, -27.287321)" style="fill: rgb(255, 255, 255);"/>
  <g transform="matrix(1, 0, 0, 1, 23.274478912353516, -58.9887619018555)">
    <path d="M 319.992 217.784 Q 324.282 217.784 327.539 219.461 Q 330.795 221.138 332.57 224.239 Q 334.344 227.339 334.344 231.434 Q 334.344 235.529 332.57 238.591 Q 330.795 241.652 327.539 243.329 Q 324.282 245.006 319.992 245.006 L 310.476 245.006 L 310.476 217.784 L 319.992 217.784 Z M 319.797 240.365 Q 324.087 240.365 326.427 238.025 Q 328.767 235.685 328.767 231.434 Q 328.767 227.183 326.427 224.785 Q 324.087 222.386 319.797 222.386 L 315.936 222.386 L 315.936 240.365 L 319.797 240.365 Z" transform="matrix(1, 0, 0, 1, -114.365967, 37.720703)" style="fill: rgb(92, 225, 230);"/>
    <path d="M 351.498 194.043 L 347.186 186.427 L 345.338 186.427 L 345.338 194.043 L 341.418 194.043 L 341.418 174.499 L 348.754 174.499 Q 351.022 174.499 352.618 175.297 Q 354.214 176.095 355.012 177.453 Q 355.81 178.811 355.81 180.491 Q 355.81 182.423 354.69 183.977 Q 353.57 185.531 351.358 186.119 L 356.034 194.043 Z M 345.338 183.487 L 348.614 183.487 Q 350.21 183.487 350.994 182.717 Q 351.778 181.947 351.778 180.575 Q 351.778 179.231 350.994 178.489 Q 350.21 177.747 348.614 177.747 L 345.338 177.747 Z" transform="matrix(1, 0, 0, 1, -118.78009, 89.486351)" style="fill: rgb(92, 225, 230);"/>
    <path d="M 361.482 174.499 L 361.482 194.043 L 357.562 194.043 L 357.562 174.499 Z" transform="matrix(1, 0, 0, 1, -118.78009, 89.486351)" style="fill: rgb(92, 225, 230);"/>
    <path d="M 381.088 174.499 L 373.92 194.043 L 369.16 194.043 L 361.992 174.499 L 366.192 174.499 L 371.568 190.039 L 376.916 174.499 Z" transform="matrix(1, 0, 0, 1, -118.78009, 89.486351)" style="fill: rgb(92, 225, 230);"/>
    <path d="M 385.566 177.663 L 385.566 182.563 L 392.146 182.563 L 392.146 185.671 L 385.566 185.671 L 385.566 190.851 L 392.986 190.851 L 392.986 194.043 L 381.646 194.043 L 381.646 174.471 L 392.986 174.471 L 392.986 177.663 Z" transform="matrix(1, 0, 0, 1, -118.78009, 89.486351)" style="fill: rgb(92, 225, 230);"/>
  </g>
  <g transform="matrix(1, 0, 0, 1, -3.552713678800501e-15, -2.842170943040401e-14)">
    <path style="fill-opacity: 0; transform-box: fill-box; transform-origin: 50% 50%; fill: rgb(255, 255, 255); stroke: rgb(255, 255, 255);" d="M 313.331 181.137 L 275.611 181.538 L 276.814 238.119 L 313.331 237.718" transform="matrix(-0.999848, -0.017452, 0.017452, -0.999848, -0.000023, 0.000019)"/>
    <path style="fill: rgb(255, 255, 255); stroke: rgb(255, 255, 255);" d="M 276.116 182.008 L 312.394 182.177"/>
    <path style="fill: rgb(255, 255, 255); stroke: rgb(255, 255, 255);" d="M 275.104 236.93 L 311.887 237.099"/>
    <path style="fill: rgb(255, 255, 255); stroke: rgb(255, 255, 255);" d="M 311.887 237.774 L 311.887 182.43"/>
  </g>
  <g transform="matrix(-1, 0, 0, -1, -300.081207275391, -49.393371582031)" style="transform-origin: 294.465px 209.628px;">
    <g transform="matrix(1, 0, 0, 1.009588, -195.418549, -50.42786)" style="">
      <path style="fill: rgb(255, 255, 255); stroke: rgb(255, 255, 255);" d="M 295.619 181.61 L 331.897 181.779"/>
      <path style="fill: rgb(255, 255, 255); stroke: rgb(255, 255, 255);" d="M 294.739 236.134 L 331.522 236.303"/>
      <path style="fill: rgb(255, 255, 255); stroke: rgb(255, 255, 255);" d="M 331.654 236.712 L 331.654 181.368"/>
    </g>
  </g>
  <path style="fill: rgb(216, 216, 216); stroke: rgb(255, 255, 255);" d="M 152.235 182.203 L 152.373 236.171" transform="matrix(1, 0, 0, 1, -3.552713678800501e-15, -2.842170943040401e-14)"/>
  <path style="fill: rgb(216, 216, 216); stroke: rgb(255, 255, 255);" d="M 188.476 236.171 L 153.442 235.895" transform="matrix(1, 0, 0, 1, -3.552713678800501e-15, -2.842170943040401e-14)"/>
  <path style="fill: rgb(216, 216, 216); stroke: rgb(255, 255, 255);" d="M 153.235 182.341 L 189.581 182.48" transform="matrix(1, 0, 0, 1, -3.552713678800501e-15, -2.842170943040401e-14)"/>
</svg>